<svg width="22" height="18" viewBox="0 0 22 18" fill="none" xmlns="http://www.w3.org/2000/svg">
  <path fill="#4e040d" d="M5.9641 0H16.0359C16.2844 1.722 17.7602 3 19.5 3C19.8322 3 20.1626 2.95271 20.4815 2.85956C20.2972 4.64386 18.7938 6 17 6H5C3.20622 6 1.7028 4.64386 1.51852 2.85957C1.83736 2.95271 2.16783 3 2.5 3C4.23985 3 5.71555 1.722 5.9641 0ZM21.9786 8.1114C21.5422 8.3591 21.0376 8.5005 20.5 8.5005C19.3896 8.5005 18.4201 7.8972 17.9013 7.0005H4.09865C3.57994 7.8972 2.61042 8.5005 1.5 8.5005C0.96237 8.5005 0.45778 8.3591 0.0213799 8.1114C0.00724995 8.2391 0 8.369 0 8.5005C0 9.8967 0.81753 11.1019 2 11.6637V18H8V16C8 14.3431 9.3432 13 11 13C12.6569 13 14 14.3431 14 16V18H20V11.6637C21.1825 11.1019 22 9.8967 22 8.5005C22 8.369 21.9927 8.2391 21.9786 8.1114Z"/>
</svg>
